<?xml version="1.0" encoding="UTF-8" standalone="no"?>
<svg
   xmlns:dc="http://purl.org/dc/elements/1.1/"
   xmlns:cc="http://creativecommons.org/ns#"
   xmlns:rdf="http://www.w3.org/1999/02/22-rdf-syntax-ns#"
   xmlns:svg="http://www.w3.org/2000/svg"
   xmlns="http://www.w3.org/2000/svg"
   id="svg1484"
   version="1.1"
   viewBox="0 0 132.29166 26.458334"
   height="100"
   width="500">
  <defs
     id="defs1478" />
  <metadata
     id="metadata1481">
    <rdf:RDF>
      <cc:Work
         rdf:about="">
        <dc:format>image/svg+xml</dc:format>
        <dc:type
           rdf:resource="http://purl.org/dc/dcmitype/StillImage" />
        <dc:title></dc:title>
      </cc:Work>
    </rdf:RDF>
  </metadata>
  <g
     transform="translate(0,-270.54165)"
     id="layer1">
    <g
       transform="matrix(1.6013465,0,0,1.6013465,-201.38386,174.96504)"
       id="text837"
       style="font-style:normal;font-weight:normal;font-size:10.58333302px;line-height:1.25;font-family:sans-serif;letter-spacing:0px;word-spacing:0px;fill:#000000;fill-opacity:1;stroke:none;stroke-width:0.26458332"
       aria-label="BANGIL">
      <path
         id="path2039"
         style="font-style:normal;font-variant:normal;font-weight:normal;font-stretch:normal;font-size:22.57777786px;font-family:'Posterama 2001 W04';-inkscape-font-specification:'Posterama 2001 W04';fill:#f44336;fill-opacity:0.96078431;stroke-width:0.26458332"
         d="m 125.75908,60.631229 q 0,-0.293511 0.11289,-0.4064 0.13547,-0.135467 0.42898,-0.135467 h 5.23804 q 2.86738,0 4.40267,1.038578 1.55787,1.016 1.55787,3.273778 0,1.241777 -0.56445,2.077155 -0.56444,0.8128 -1.58044,1.241778 1.2192,0.316089 1.91911,1.2192 0.72249,0.903111 0.72249,2.212622 0,4.741333 -6.38951,4.741333 h -5.30578 q -0.29351,0 -0.42898,-0.112888 -0.11289,-0.135467 -0.11289,-0.428978 z m 3.4544,2.280355 q -0.15804,0 -0.22578,0.06773 -0.0677,0.04516 -0.0677,0.225777 v 3.025423 q 0,0.158044 0.0677,0.225777 0.0677,0.06773 0.22578,0.06773 h 2.28036 q 1.4224,0 2.07715,-0.451556 0.67734,-0.451555 0.67734,-1.377244 0,-0.948267 -0.72249,-1.354667 -0.69991,-0.428978 -2.19005,-0.428978 z m 2.39325,10.16 q 1.64817,0 2.37066,-0.451555 0.74507,-0.451556 0.74507,-1.467556 0,-0.970844 -0.76764,-1.399822 -0.74507,-0.428978 -2.25778,-0.428978 h -2.48356 q -0.18062,0 -0.24835,0.06773 -0.0452,0.06773 -0.0452,0.248356 v 3.138311 q 0,0.158045 0.0677,0.225778 0.0677,0.06773 0.22578,0.06773 z" />
      <path
         id="path2041"
         style="font-style:normal;font-variant:normal;font-weight:normal;font-stretch:normal;font-size:22.57777786px;font-family:'Posterama 2001 W04';-inkscape-font-specification:'Posterama 2001 W04';fill:#f44336;fill-opacity:0.96078431;stroke-width:0.26458332"
         d="m 142.77461,75.193895 q -0.2032,0.428978 -0.4064,0.564445 -0.2032,0.135466 -0.6096,0.135466 h -2.00942 q -0.49671,0 -0.49671,-0.316088 0,-0.112889 0.11289,-0.383823 l 7.02169,-14.336889 q 0.31609,-0.677333 0.51929,-0.903111 0.2032,-0.225777 0.45155,-0.225777 0.24836,0 0.42898,0.225777 0.18062,0.225778 0.51929,0.903111 l 7.06684,14.336889 q 0.11289,0.270934 0.11289,0.383823 0,0.316088 -0.49671,0.316088 h -2.14489 q -0.38382,0 -0.58702,-0.135466 -0.2032,-0.135467 -0.4064,-0.564445 l -4.56071,-9.618133 z" />
      <path
         id="path2043"
         style="font-style:normal;font-variant:normal;font-weight:normal;font-stretch:normal;font-size:22.57777786px;font-family:'Posterama 2001 W04';-inkscape-font-specification:'Posterama 2001 W04';fill:#f44336;fill-opacity:0.96078431;stroke-width:0.26458332"
         d="m 167.42708,60.631229 q 0,-0.293511 0.11289,-0.4064 0.13546,-0.135467 0.42897,-0.135467 h 2.05458 q 0.29351,0 0.42898,0.135467 0.13547,0.112889 0.13547,0.4064 V 75.35194 q 0,0.4064 -0.13547,0.6096 -0.11289,0.2032 -0.38382,0.2032 -0.2032,0 -0.42898,-0.158045 -0.22578,-0.158044 -0.63218,-0.564444 l -8.60213,-9.098845 v 9.008534 q 0,0.293511 -0.13547,0.428978 -0.13547,0.112888 -0.42898,0.112888 h -2.05457 q -0.29352,0 -0.42898,-0.112888 -0.11289,-0.135467 -0.11289,-0.428978 V 60.631229 q 0,-0.8128 0.49671,-0.8128 0.2032,0 0.42898,0.158044 0.24835,0.158045 0.65475,0.564445 l 8.60214,9.098844 z" />
      <path
         id="path2045"
         style="font-style:normal;font-variant:normal;font-weight:normal;font-stretch:normal;font-size:22.57777786px;font-family:'Posterama 2001 W04';-inkscape-font-specification:'Posterama 2001 W04';fill:#f44336;fill-opacity:0.96078431;stroke-width:0.26458332"
         d="m 188.1062,73.906962 q 0,0.316089 -0.11289,0.496711 -0.0903,0.158045 -0.36124,0.293511 -2.88996,1.467556 -6.05084,1.467556 -2.28036,0 -4.17689,-0.993422 -1.87396,-1.016 -2.95769,-2.8448 -1.08374,-1.8288 -1.08374,-4.199467 0,-2.460978 1.10632,-4.334933 1.10631,-1.896534 3.02542,-2.935112 1.91911,-1.038577 4.31235,-1.038577 1.64818,0 3.13831,0.496711 1.49014,0.496711 2.6416,1.309511 0.33867,0.2032 0.33867,0.451555 0,0.180623 -0.15804,0.4064 l -0.90311,1.377245 q -0.2032,0.293511 -0.42898,0.293511 -0.15805,0 -0.4064,-0.135467 -2.032,-1.264355 -4.22205,-1.264355 -1.53529,0 -2.70933,0.677333 -1.17404,0.677333 -1.8288,1.873956 -0.63218,1.196622 -0.63218,2.731911 0,1.535289 0.65476,2.731911 0.67733,1.174044 1.8288,1.8288 1.15146,0.654755 2.57386,0.654755 1.71592,0 2.93512,-0.496711 0.2032,-0.09031 0.24835,-0.180622 0.0677,-0.09031 0.0677,-0.293511 v -3.567289 q 0,-0.293511 0.11289,-0.4064 0.13547,-0.135467 0.42898,-0.135467 h 2.07716 q 0.29351,0 0.4064,0.135467 0.13546,0.112889 0.13546,0.4064 z" />
      <path
         id="path2047"
         style="fill:#00e676;fill-opacity:0.96078431;stroke-width:0.26458332"
         d="m 194.49254,75.35194 q 0,0.293511 -0.13546,0.428978 -0.13547,0.112888 -0.42898,0.112888 h -2.05458 q -0.29351,0 -0.42898,-0.112888 -0.11289,-0.135467 -0.11289,-0.428978 V 60.631229 q 0,-0.293511 0.11289,-0.4064 0.13547,-0.135467 0.42898,-0.135467 h 2.05458 q 0.29351,0 0.42898,0.135467 0.13546,0.112889 0.13546,0.4064 z" />
      <path
         id="path2049"
         style="fill:#00e676;fill-opacity:0.96078431;stroke-width:0.26458332"
         d="m 201.32761,72.665184 q 0,0.158045 0.0677,0.225778 0.0677,0.06773 0.22578,0.06773 h 6.20889 q 0.29351,0 0.4064,0.135467 0.13547,0.112889 0.13547,0.4064 v 1.851378 q 0,0.293511 -0.13547,0.428978 -0.11289,0.112888 -0.4064,0.112888 h -9.12142 q -0.29351,0 -0.42898,-0.112888 -0.11289,-0.135467 -0.11289,-0.428978 V 60.631229 q 0,-0.293511 0.11289,-0.4064 0.13547,-0.135467 0.42898,-0.135467 h 2.05458 q 0.29351,0 0.42897,0.135467 0.13547,0.112889 0.13547,0.4064 z" />
    </g>
  </g>
</svg>
