<?xml version="1.0" encoding="UTF-8" standalone="no"?>
<svg
   xmlns:dc="http://purl.org/dc/elements/1.1/"
   xmlns:cc="http://creativecommons.org/ns#"
   xmlns:rdf="http://www.w3.org/1999/02/22-rdf-syntax-ns#"
   xmlns:svg="http://www.w3.org/2000/svg"
   xmlns="http://www.w3.org/2000/svg"
   id="svg864"
   version="1.1"
   viewBox="0 0 132.29166 27.781251"
   height="105"
   width="500">
  <defs
     id="defs858" />
  <metadata
     id="metadata861">
    <rdf:RDF>
      <cc:Work
         rdf:about="">
        <dc:format>image/svg+xml</dc:format>
        <dc:type
           rdf:resource="http://purl.org/dc/dcmitype/StillImage" />
        <dc:title></dc:title>
      </cc:Work>
    </rdf:RDF>
  </metadata>
  <g
     transform="translate(0,-269.21873)"
     id="layer1">
    <g
       transform="matrix(1.6666669,0,0,1.6666669,-71.463928,240.47843)"
       id="text845"
       style="font-style:normal;font-weight:normal;font-size:10.62806606px;line-height:1.25;font-family:sans-serif;letter-spacing:0px;word-spacing:0px;fill:#000000;fill-opacity:1;stroke:none;stroke-width:0.26570162"
       aria-label="BENGIL">
      <path
         id="path1419"
         style="font-style:normal;font-variant:normal;font-weight:normal;font-stretch:normal;font-size:22.67320824px;font-family:'Posterama 2001 W04';-inkscape-font-specification:'Posterama 2001 W04';fill:#f44336;fill-opacity:0.96078431;stroke-width:0.26570162"
         d="m 42.87835,18.187083 q 0,-0.294752 0.113366,-0.408118 0.13604,-0.136039 0.430791,-0.136039 h 5.260185 q 2.879497,0 4.421275,1.042967 1.564452,1.020295 1.564452,3.287616 0,1.247026 -0.566831,2.085935 -0.56683,0.816235 -1.587124,1.247026 1.224353,0.317425 1.927223,1.224353 0.725542,0.906929 0.725542,2.221975 0,4.761374 -6.416518,4.761374 h -5.328204 q -0.294751,0 -0.430791,-0.113366 -0.113366,-0.13604 -0.113366,-0.430791 z m 3.469001,2.289994 q -0.158712,0 -0.226732,0.06802 -0.06802,0.04535 -0.06802,0.226733 v 3.038209 q 0,0.158713 0.06802,0.226733 0.06802,0.06802 0.226732,0.06802 h 2.289994 q 1.428412,0 2.085935,-0.453464 0.680197,-0.453464 0.680197,-1.383066 0,-0.952274 -0.725543,-1.360392 -0.702869,-0.430791 -2.199301,-0.430791 z m 2.40336,10.202944 q 1.655145,0 2.380687,-0.453465 0.748216,-0.453464 0.748216,-1.473758 0,-0.974948 -0.770889,-1.405739 -0.748216,-0.430791 -2.267321,-0.430791 h -2.494053 q -0.181385,0 -0.249405,0.06802 -0.04535,0.06802 -0.04535,0.249405 v 3.151576 q 0,0.158712 0.06802,0.226732 0.06802,0.06802 0.226732,0.06802 z" />
      <path
         id="path1421"
         style="font-style:normal;font-variant:normal;font-weight:normal;font-stretch:normal;font-size:22.67320824px;font-family:'Posterama 2001 W04';-inkscape-font-specification:'Posterama 2001 W04';fill:#f44336;fill-opacity:0.96078431;stroke-width:0.26570162"
         d="m 67.41643,30.566655 q 0.294751,0 0.430791,0.136039 0.136039,0.113366 0.136039,0.408118 v 1.859203 q 0,0.294751 -0.136039,0.430791 -0.13604,0.113366 -0.430791,0.113366 H 58.3018 q -0.294752,0 -0.430791,-0.113366 -0.113366,-0.13604 -0.113366,-0.430791 V 18.187083 q 0,-0.294752 0.113366,-0.408118 0.136039,-0.136039 0.430791,-0.136039 h 9.091956 q 0.294752,0 0.430791,0.136039 0.13604,0.113366 0.13604,0.408118 v 1.859203 q 0,0.294752 -0.13604,0.430791 -0.136039,0.113366 -0.430791,0.113366 h -6.167112 q -0.158713,0 -0.226732,0.06802 -0.06802,0.06802 -0.06802,0.226732 v 2.879497 q 0,0.158713 0.06802,0.226732 0.06802,0.06802 0.226732,0.06802 h 5.396223 q 0.294752,0 0.430791,0.136039 0.13604,0.136039 0.13604,0.430791 v 1.83653 q 0,0.294752 -0.13604,0.430791 -0.136039,0.113366 -0.430791,0.113366 h -5.396223 q -0.158713,0 -0.226732,0.06802 -0.06802,0.04535 -0.06802,0.226733 v 2.97019 q 0,0.158712 0.06802,0.226732 0.06802,0.06802 0.226732,0.06802 z" />
      <path
         id="path1423"
         style="font-style:normal;font-variant:normal;font-weight:normal;font-stretch:normal;font-size:22.67320824px;font-family:'Posterama 2001 W04';-inkscape-font-specification:'Posterama 2001 W04';fill:#f44336;fill-opacity:0.96078431;stroke-width:0.26570162"
         d="m 81.135492,18.187083 q 0,-0.294752 0.113366,-0.408118 0.136039,-0.136039 0.430791,-0.136039 h 2.063262 q 0.294752,0 0.430791,0.136039 0.136039,0.113366 0.136039,0.408118 v 14.782932 q 0,0.408117 -0.136039,0.612176 -0.113366,0.204059 -0.385445,0.204059 -0.204059,0 -0.430791,-0.158712 -0.226732,-0.158713 -0.634849,-0.566831 l -8.638493,-9.137302 v 9.04661 q 0,0.294751 -0.136039,0.430791 -0.136039,0.113366 -0.430791,0.113366 h -2.063262 q -0.294752,0 -0.430791,-0.113366 -0.113366,-0.13604 -0.113366,-0.430791 V 18.187083 q 0,-0.816236 0.498811,-0.816236 0.204059,0 0.430791,0.158713 0.249405,0.158712 0.657523,0.56683 l 8.638492,9.137303 z" />
      <path
         id="path1425"
         style="font-style:normal;font-variant:normal;font-weight:normal;font-stretch:normal;font-size:22.67320824px;font-family:'Posterama 2001 W04';-inkscape-font-specification:'Posterama 2001 W04';fill:#f44336;fill-opacity:0.96078431;stroke-width:0.26570162"
         d="m 101.90203,31.518929 q 0,0.317425 -0.11337,0.498811 -0.0907,0.158712 -0.36277,0.294752 -2.902171,1.473758 -6.07642,1.473758 -2.289994,0 -4.194544,-0.997621 -1.881876,-1.020294 -2.97019,-2.856824 -1.088314,-1.83653 -1.088314,-4.217217 0,-2.47138 1.110987,-4.353256 1.110987,-1.90455 3.03821,-2.947517 1.927223,-1.042968 4.330583,-1.042968 1.655144,0 3.151576,0.498811 1.496432,0.49881 2.652762,1.315046 0.3401,0.204059 0.3401,0.453464 0,0.181386 -0.15871,0.408118 l -0.90693,1.383066 q -0.20406,0.294751 -0.43079,0.294751 -0.15871,0 -0.408118,-0.136039 -2.040589,-1.2697 -4.23989,-1.2697 -1.541778,0 -2.720785,0.680197 -1.179007,0.680196 -1.83653,1.881876 -0.63485,1.20168 -0.63485,2.743458 0,1.541778 0.657523,2.743458 0.680197,1.179007 1.83653,1.83653 1.156334,0.657523 2.584746,0.657523 1.723164,0 2.947517,-0.49881 0.204059,-0.09069 0.249405,-0.181386 0.06802,-0.09069 0.06802,-0.294752 v -3.582367 q 0,-0.294751 0.113366,-0.408117 0.136039,-0.13604 0.430791,-0.13604 h 2.085935 q 0.29475,0 0.40812,0.13604 0.13604,0.113366 0.13604,0.408117 z" />
      <path
         id="path1427"
         style="fill:#00e676;fill-opacity:0.96078431;stroke-width:0.26570162"
         d="m 108.31536,32.970015 q 0,0.294751 -0.13604,0.430791 -0.13604,0.113366 -0.43079,0.113366 h -2.06327 q -0.29475,0 -0.43079,-0.113366 -0.11336,-0.13604 -0.11336,-0.430791 V 18.187083 q 0,-0.294752 0.11336,-0.408118 0.13604,-0.136039 0.43079,-0.136039 h 2.06327 q 0.29475,0 0.43079,0.136039 0.13604,0.113366 0.13604,0.408118 z" />
      <path
         id="path1429"
         style="fill:#00e676;fill-opacity:0.96078431;stroke-width:0.26570162"
         d="m 115.17932,30.271903 q 0,0.158712 0.068,0.226732 0.068,0.06802 0.22673,0.06802 h 6.23513 q 0.29475,0 0.40812,0.136039 0.13604,0.113366 0.13604,0.408118 v 1.859203 q 0,0.294751 -0.13604,0.430791 -0.11337,0.113366 -0.40812,0.113366 h -9.15998 q -0.29475,0 -0.43079,-0.113366 -0.11336,-0.13604 -0.11336,-0.430791 V 18.187083 q 0,-0.294752 0.11336,-0.408118 0.13604,-0.136039 0.43079,-0.136039 h 2.06327 q 0.29475,0 0.43079,0.136039 0.13604,0.113366 0.13604,0.408118 z" />
    </g>
  </g>
</svg>
