<?xml version="1.0" encoding="UTF-8" standalone="no"?>
<svg
   xmlns:dc="http://purl.org/dc/elements/1.1/"
   xmlns:cc="http://creativecommons.org/ns#"
   xmlns:rdf="http://www.w3.org/1999/02/22-rdf-syntax-ns#"
   xmlns:svg="http://www.w3.org/2000/svg"
   xmlns="http://www.w3.org/2000/svg"
   xmlns:sodipodi="http://sodipodi.sourceforge.net/DTD/sodipodi-0.dtd"
   xmlns:inkscape="http://www.inkscape.org/namespaces/inkscape"
   version="1.1"
   id="svg4353"
   viewBox="0 0 250 40.000001"
   height="40"
   width="250"
   inkscape:version="0.91 r13725"
   sodipodi:docname="ocl_logo.svg">
  <sodipodi:namedview
     pagecolor="#ffffff"
     bordercolor="#666666"
     borderopacity="1"
     objecttolerance="10"
     gridtolerance="10"
     guidetolerance="10"
     inkscape:pageopacity="0"
     inkscape:pageshadow="2"
     inkscape:window-width="1366"
     inkscape:window-height="744"
     id="namedview23"
     showgrid="false"
     inkscape:zoom="1.192"
     inkscape:cx="125"
     inkscape:cy="20"
     inkscape:window-x="0"
     inkscape:window-y="24"
     inkscape:window-maximized="1"
     inkscape:current-layer="svg4353" />
  <defs
     id="defs4355" />
  <metadata
     id="metadata4358">
    <rdf:RDF>
      <cc:Work
         rdf:about="">
        <dc:format>image/svg+xml</dc:format>
        <dc:type
           rdf:resource="http://purl.org/dc/dcmitype/StillImage" />
        <dc:title />
      </cc:Work>
    </rdf:RDF>
  </metadata>
  <g
     transform="translate(0,-1012.3622)"
     id="layer1">
    <g
       transform="translate(-0.25891181,0.70813442)"
       id="g4937">
      <g
         id="g4335"
         transform="translate(-227.97836,793.17176)">
        <g
           style="font-style:normal;font-weight:normal;font-size:40px;line-height:125%;font-family:sans-serif;letter-spacing:0px;word-spacing:0px;fill:#1a1a1a;fill-opacity:1;stroke:none;stroke-width:1px;stroke-linecap:butt;stroke-linejoin:miter;stroke-opacity:1"
           id="text4188-0">
          <path
             d="m 275.61465,238.55431 q 0,-2.496 1.152,-4.488 1.152,-2.016 3.168,-3.144 2.016,-1.128 4.536,-1.128 2.52,0 4.536,1.128 2.016,1.104 3.144,3.096 1.152,1.968 1.152,4.44 0,2.496 -1.152,4.488 -1.152,1.992 -3.192,3.12 -2.016,1.104 -4.56,1.104 -2.496,0 -4.512,-1.104 -1.992,-1.104 -3.144,-3.072 -1.128,-1.968 -1.128,-4.44 z m 3.48,-0.048 q 0,1.608 0.696,2.88 0.696,1.248 1.896,1.968 1.224,0.696 2.736,0.696 1.488,0 2.712,-0.696 1.248,-0.72 1.968,-1.992 0.72,-1.272 0.72,-2.856 0,-1.632 -0.72,-2.904 -0.696,-1.296 -1.944,-1.992 -1.224,-0.696 -2.712,-0.696 -1.512,0 -2.736,0.72 -1.2,0.696 -1.92,1.968 -0.696,1.272 -0.696,2.904 z"
             style="font-style:normal;font-variant:normal;font-weight:600;font-stretch:normal;font-size:24px;font-family:'Posterama 2001 W04';-inkscape-font-specification:'Posterama 2001 W04 Semi-Bold';fill:#1a1a1a"
             id="path4152" />
          <path
             d="m 299.88727,241.89031 q -0.168,0 -0.24,0.072 -0.072,0.072 -0.072,0.24 l 0,4.104 q 0,0.312 -0.144,0.456 -0.144,0.12 -0.456,0.12 l -2.184,0 q -0.312,0 -0.456,-0.12 -0.12,-0.144 -0.12,-0.456 l 0,-15.648 q 0,-0.312 0.12,-0.432 0.144,-0.144 0.456,-0.144 l 5.184,0 q 7.128,0 7.128,5.808 0,2.928 -1.872,4.464 -1.872,1.536 -5.448,1.536 l -1.896,0 z m 0,-8.688 q -0.168,0 -0.24,0.072 -0.072,0.072 -0.072,0.24 l 0,4.944 q 0,0.168 0.072,0.24 0.072,0.072 0.24,0.072 l 1.92,0 q 1.848,0 2.832,-0.696 0.984,-0.696 0.984,-2.136 0,-1.44 -0.96,-2.088 -0.96,-0.648 -2.856,-0.648 l -1.92,0 z"
             style="font-style:normal;font-variant:normal;font-weight:600;font-stretch:normal;font-size:24px;font-family:'Posterama 2001 W04';-inkscape-font-specification:'Posterama 2001 W04 Semi-Bold';fill:#1a1a1a"
             id="path4154" />
          <path
             d="m 322.09552,243.76231 q 0.312,0 0.456,0.144 0.144,0.12 0.144,0.432 l 0,1.968 q 0,0.312 -0.144,0.456 -0.144,0.12 -0.456,0.12 l -9.648,0 q -0.312,0 -0.456,-0.12 -0.12,-0.144 -0.12,-0.456 l 0,-15.648 q 0,-0.312 0.12,-0.432 0.144,-0.144 0.456,-0.144 l 9.624,0 q 0.312,0 0.456,0.144 0.144,0.12 0.144,0.432 l 0,1.968 q 0,0.312 -0.144,0.456 -0.144,0.12 -0.456,0.12 l -6.528,0 q -0.168,0 -0.24,0.072 -0.072,0.072 -0.072,0.24 l 0,3.048 q 0,0.168 0.072,0.24 0.072,0.072 0.24,0.072 l 5.712,0 q 0.312,0 0.456,0.144 0.144,0.144 0.144,0.456 l 0,1.944 q 0,0.312 -0.144,0.456 -0.144,0.12 -0.456,0.12 l -5.712,0 q -0.168,0 -0.24,0.072 -0.072,0.048 -0.072,0.24 l 0,3.144 q 0,0.168 0.072,0.24 0.072,0.072 0.24,0.072 l 6.552,0 z"
             style="font-style:normal;font-variant:normal;font-weight:600;font-stretch:normal;font-size:24px;font-family:'Posterama 2001 W04';-inkscape-font-specification:'Posterama 2001 W04 Semi-Bold';fill:#1a1a1a"
             id="path4156" />
          <path
             d="m 336.6174,230.65831 q 0,-0.312 0.12,-0.432 0.144,-0.144 0.456,-0.144 l 2.184,0 q 0.312,0 0.456,0.144 0.144,0.12 0.144,0.432 l 0,15.648 q 0,0.432 -0.144,0.648 -0.12,0.216 -0.408,0.216 -0.216,0 -0.456,-0.168 -0.24,-0.168 -0.672,-0.6 l -9.144,-9.672 0,9.576 q 0,0.312 -0.144,0.456 -0.144,0.12 -0.456,0.12 l -2.184,0 q -0.312,0 -0.456,-0.12 -0.12,-0.144 -0.12,-0.456 l 0,-15.648 q 0,-0.864 0.528,-0.864 0.216,0 0.456,0.168 0.264,0.168 0.696,0.6 l 9.144,9.672 0,-9.576 z"
             style="font-style:normal;font-variant:normal;font-weight:600;font-stretch:normal;font-size:24px;font-family:'Posterama 2001 W04';-inkscape-font-specification:'Posterama 2001 W04 Semi-Bold';fill:#1a1a1a"
             id="path4158" />
          <path
             d="m 351.80715,244.05031 q 2.472,0 4.416,-1.56 0.264,-0.216 0.456,-0.216 0.192,0 0.384,0.264 l 1.056,1.512 q 0.144,0.216 0.144,0.36 0,0.12 -0.072,0.24 -0.072,0.12 -0.24,0.264 -1.296,1.08 -2.904,1.68 -1.608,0.576 -3.36,0.576 -2.448,0 -4.464,-1.104 -1.992,-1.128 -3.144,-3.096 -1.152,-1.968 -1.152,-4.416 0,-2.496 1.152,-4.488 1.176,-1.992 3.192,-3.12 2.04,-1.152 4.584,-1.152 1.752,0 3.312,0.6 1.56,0.6 2.832,1.632 0.12,0.12 0.192,0.24 0.072,0.096 0.072,0.192 0,0.168 -0.168,0.408 l -1.056,1.488 q -0.216,0.288 -0.432,0.288 -0.168,0 -0.432,-0.192 -0.96,-0.72 -2.064,-1.128 -1.104,-0.408 -2.304,-0.408 -1.512,0 -2.76,0.72 -1.224,0.696 -1.944,1.968 -0.696,1.272 -0.696,2.904 0,1.584 0.696,2.856 0.72,1.248 1.944,1.968 1.224,0.72 2.76,0.72 z"
             style="font-style:normal;font-variant:normal;font-weight:600;font-stretch:normal;font-size:24px;font-family:'Posterama 2001 W04';-inkscape-font-specification:'Posterama 2001 W04 Semi-Bold';fill:#1a1a1a"
             id="path4160" />
          <path
             d="m 375.25702,239.68231 q 0,2.448 -0.96,4.128 -0.936,1.68 -2.616,2.52 -1.656,0.84 -3.84,0.84 -2.136,0 -3.744,-0.816 -1.608,-0.816 -2.52,-2.472 -0.888,-1.656 -0.888,-4.152 l 0,-9.072 q 0,-0.312 0.12,-0.432 0.144,-0.144 0.456,-0.144 l 2.184,0 q 0.312,0 0.456,0.144 0.144,0.12 0.144,0.432 l 0,8.832 q 0,2.184 0.984,3.384 1.008,1.176 2.928,1.176 1.896,0 2.904,-1.176 1.032,-1.2 1.032,-3.36 l 0,-8.856 q 0,-0.312 0.12,-0.432 0.144,-0.144 0.456,-0.144 l 2.184,0 q 0.312,0 0.456,0.144 0.144,0.12 0.144,0.432 l 0,9.024 z"
             style="font-style:normal;font-variant:normal;font-weight:600;font-stretch:normal;font-size:24px;font-family:'Posterama 2001 W04';-inkscape-font-specification:'Posterama 2001 W04 Semi-Bold';fill:#1a1a1a"
             id="path4162" />
          <path
             d="m 379.0434,230.65831 q 0,-0.312 0.12,-0.432 0.144,-0.144 0.456,-0.144 l 5.568,0 q 3.048,0 4.68,1.104 1.656,1.08 1.656,3.48 0,1.32 -0.6,2.208 -0.6,0.864 -1.68,1.32 1.296,0.336 2.04,1.296 0.768,0.96 0.768,2.352 0,5.04 -6.792,5.04 l -5.64,0 q -0.312,0 -0.456,-0.12 -0.12,-0.144 -0.12,-0.456 l 0,-15.648 z m 3.672,2.424 q -0.168,0 -0.24,0.072 -0.072,0.048 -0.072,0.24 l 0,3.216 q 0,0.168 0.072,0.24 0.072,0.072 0.24,0.072 l 2.424,0 q 1.512,0 2.208,-0.48 0.72,-0.48 0.72,-1.464 0,-1.008 -0.768,-1.44 -0.744,-0.456 -2.328,-0.456 l -2.256,0 z m 2.544,10.8 q 1.752,0 2.52,-0.48 0.792,-0.48 0.792,-1.56 0,-1.032 -0.816,-1.488 -0.792,-0.456 -2.4,-0.456 l -2.64,0 q -0.192,0 -0.264,0.072 -0.048,0.072 -0.048,0.264 l 0,3.336 q 0,0.168 0.072,0.24 0.072,0.072 0.24,0.072 l 2.544,0 z"
             style="font-style:normal;font-variant:normal;font-weight:600;font-stretch:normal;font-size:24px;font-family:'Posterama 2001 W04';-inkscape-font-specification:'Posterama 2001 W04 Semi-Bold';fill:#1a1a1a"
             id="path4164" />
          <path
             d="m 405.0174,243.76231 q 0.312,0 0.456,0.144 0.144,0.12 0.144,0.432 l 0,1.968 q 0,0.312 -0.144,0.456 -0.144,0.12 -0.456,0.12 l -9.648,0 q -0.312,0 -0.456,-0.12 -0.12,-0.144 -0.12,-0.456 l 0,-15.648 q 0,-0.312 0.12,-0.432 0.144,-0.144 0.456,-0.144 l 9.624,0 q 0.312,0 0.456,0.144 0.144,0.12 0.144,0.432 l 0,1.968 q 0,0.312 -0.144,0.456 -0.144,0.12 -0.456,0.12 l -6.528,0 q -0.168,0 -0.24,0.072 -0.072,0.072 -0.072,0.24 l 0,3.048 q 0,0.168 0.072,0.24 0.072,0.072 0.24,0.072 l 5.712,0 q 0.312,0 0.456,0.144 0.144,0.144 0.144,0.456 l 0,1.944 q 0,0.312 -0.144,0.456 -0.144,0.12 -0.456,0.12 l -5.712,0 q -0.168,0 -0.24,0.072 -0.072,0.048 -0.072,0.24 l 0,3.144 q 0,0.168 0.072,0.24 0.072,0.072 0.24,0.072 l 6.552,0 z"
             style="font-style:normal;font-variant:normal;font-weight:600;font-stretch:normal;font-size:24px;font-family:'Posterama 2001 W04';-inkscape-font-specification:'Posterama 2001 W04 Semi-Bold';fill:#1a1a1a"
             id="path4166" />
        </g>
        <g
           style="font-style:normal;font-weight:normal;font-size:40px;line-height:125%;font-family:sans-serif;letter-spacing:0px;word-spacing:0px;fill:#1a1a1a;fill-opacity:1;stroke:none;stroke-width:1px;stroke-linecap:butt;stroke-linejoin:miter;stroke-opacity:1"
           id="text4192-6">
          <path
             d="m 420.86583,243.49831 q 0,0.168 0.072,0.24 0.072,0.072 0.24,0.072 l 6.6,0 q 0.312,0 0.432,0.144 0.144,0.12 0.144,0.432 l 0,1.968 q 0,0.312 -0.144,0.456 -0.12,0.12 -0.432,0.12 l -9.696,0 q -0.312,0 -0.456,-0.12 -0.12,-0.144 -0.12,-0.456 l 0,-15.648 q 0,-0.312 0.12,-0.432 0.144,-0.144 0.456,-0.144 l 2.184,0 q 0.312,0 0.456,0.144 0.144,0.12 0.144,0.432 l 0,12.792 z"
             style="font-style:normal;font-variant:normal;font-weight:600;font-stretch:normal;font-size:24px;font-family:'Posterama 2001 W04';-inkscape-font-specification:'Posterama 2001 W04 Semi-Bold';fill:#1a1a1a"
             id="path4169" />
          <path
             d="m 433.67133,246.18631 q -0.216,0.456 -0.432,0.6 -0.216,0.144 -0.648,0.144 l -2.136,0 q -0.528,0 -0.528,-0.336 0,-0.12 0.12,-0.408 l 7.464,-15.24 q 0.336,-0.72 0.552,-0.96 0.216,-0.24 0.48,-0.24 0.264,0 0.456,0.24 0.192,0.24 0.552,0.96 l 7.512,15.24 q 0.12,0.288 0.12,0.408 0,0.336 -0.528,0.336 l -2.28,0 q -0.408,0 -0.624,-0.144 -0.216,-0.144 -0.432,-0.6 l -4.848,-10.224 -4.8,10.224 z"
             style="font-style:normal;font-variant:normal;font-weight:600;font-stretch:normal;font-size:24px;font-family:'Posterama 2001 W04';-inkscape-font-specification:'Posterama 2001 W04 Semi-Bold';fill:#1a1a1a"
             id="path4171" />
          <path
             d="m 449.0527,230.70631 q 0,-0.312 0.12,-0.432 0.144,-0.144 0.456,-0.144 l 5.568,0 q 3.048,0 4.68,1.104 1.656,1.08 1.656,3.48 0,1.32 -0.6,2.208 -0.6,0.864 -1.68,1.32 1.296,0.336 2.04,1.296 0.768,0.96 0.768,2.352 0,5.04 -6.792,5.04 l -5.64,0 q -0.312,0 -0.456,-0.12 -0.12,-0.144 -0.12,-0.456 l 0,-15.648 z m 3.672,2.424 q -0.168,0 -0.24,0.072 -0.072,0.048 -0.072,0.24 l 0,3.216 q 0,0.168 0.072,0.24 0.072,0.072 0.24,0.072 l 2.424,0 q 1.512,0 2.208,-0.48 0.72,-0.48 0.72,-1.464 0,-1.008 -0.768,-1.44 -0.744,-0.456 -2.328,-0.456 l -2.256,0 z m 2.544,10.8 q 1.752,0 2.52,-0.48 0.792,-0.48 0.792,-1.56 0,-1.032 -0.816,-1.488 -0.792,-0.456 -2.4,-0.456 l -2.64,0 q -0.192,0 -0.264,0.072 -0.048,0.072 -0.048,0.264 l 0,3.336 q 0,0.168 0.072,0.24 0.072,0.072 0.24,0.072 l 2.544,0 z"
             style="font-style:normal;font-variant:normal;font-weight:600;font-stretch:normal;font-size:24px;font-family:'Posterama 2001 W04';-inkscape-font-specification:'Posterama 2001 W04 Semi-Bold';fill:#1a1a1a"
             id="path4173" />
          <path
             d="m 464.4667,242.65831 q 0.096,-0.144 0.192,-0.216 0.12,-0.096 0.216,-0.096 0.192,0 0.432,0.216 0.912,0.72 1.992,1.152 1.104,0.408 2.232,0.408 1.416,0 2.184,-0.504 0.768,-0.528 0.768,-1.416 0,-0.576 -0.312,-0.936 -0.312,-0.36 -1.032,-0.648 -0.696,-0.288 -2.016,-0.624 -1.752,-0.432 -2.904,-1.032 -1.128,-0.6 -1.752,-1.56 -0.6,-0.96 -0.6,-2.4 0,-1.608 0.768,-2.76 0.792,-1.176 2.16,-1.776 1.392,-0.624 3.144,-0.624 3.192,0 5.688,1.992 0.264,0.192 0.264,0.432 0,0.192 -0.168,0.432 l -1.008,1.584 q -0.192,0.312 -0.408,0.312 -0.168,0 -0.432,-0.192 -0.984,-0.696 -1.944,-1.08 -0.96,-0.384 -2.016,-0.384 -1.176,0 -1.872,0.504 -0.672,0.504 -0.672,1.344 0,0.6 0.336,0.984 0.336,0.384 0.984,0.648 0.672,0.264 1.896,0.576 1.848,0.456 3.024,1.104 1.176,0.624 1.752,1.584 0.6,0.936 0.6,2.304 0,1.608 -0.816,2.784 -0.816,1.176 -2.28,1.824 -1.464,0.624 -3.36,0.624 -1.728,0 -3.24,-0.552 -1.512,-0.552 -2.664,-1.512 -0.336,-0.264 -0.336,-0.48 0,-0.144 0.192,-0.456 l 1.008,-1.56 z"
             style="font-style:normal;font-variant:normal;font-weight:600;font-stretch:normal;font-size:24px;font-family:'Posterama 2001 W04';-inkscape-font-specification:'Posterama 2001 W04 Semi-Bold';fill:#1a1a1a"
             id="path4175" />
        </g>
        <path
           transform="matrix(1.5,0,0,1.25,310.13067,220.9823)"
           style="fill:#1a1a1a"
           d="m 67,28 0,-28 0,0 1,0 0,28 z"
           id="polygon10-9-3-6" />
      </g>
      <g
         id="g4377"
         transform="translate(-310.68545,794.11696)">
        <path
           id="path4375"
           d="m 323.73417,254.07317 c -4.13443,-2.38622 -5.76759,-3.33526 -5.76414,-3.3496 0.004,-0.0165 1.41079,-2.4627 1.46968,-2.55551 0.0179,-0.0282 0.14414,0.0438 5.78404,3.29999 3.17115,1.83086 5.76704,3.33374 5.76864,3.33973 0.002,0.008 -0.7386,1.30007 -1.41414,2.46538 l -0.0751,0.12961 -5.76895,-3.3296 z"
           style="fill:#1a1a1a" />
        <path
           id="path4373"
           d="m 336.10731,256.10953 c -0.40967,-0.70998 -0.74356,-1.29577 -0.74197,-1.30176 0.002,-0.006 2.59746,-1.50886 5.76861,-3.33972 5.63991,-3.25621 5.76613,-3.32822 5.78404,-3.29999 0.0589,0.0928 1.46573,2.53904 1.46969,2.55551 0.003,0.0143 -1.61838,0.95697 -5.72358,3.32666 -3.15061,1.81866 -5.74718,3.31644 -5.77015,3.32841 l -0.0418,0.0218 -0.74486,-1.29087 z"
           style="fill:#1a1a1a" />
        <path
           id="path4371"
           d="m 331.71219,246.45692 0,-6.66664 1.5,0 1.49999,0 0,6.66664 0,6.66664 -1.49999,0 -1.5,0 0,-6.66664 z"
           style="fill:#1a1a1a" />
        <path
           id="path4369"
           d="m 313.21893,237.60362 0,-6.66664 1.49333,0 1.49333,0 0,6.66664 0,6.66664 -1.49333,0 -1.49333,0 0,-6.66664 z"
           style="fill:#1a1a1a" />
        <path
           id="path4367"
           d="m 350.20546,237.60362 0,-6.66664 1.49999,0 1.49999,0 0,6.66664 0,6.66664 -1.49999,0 -1.49999,0 0,-6.66664 z"
           style="fill:#1a1a1a" />
        <path
           id="path4365"
           d="m 323.73417,234.37991 c -4.13443,-2.38622 -5.76759,-3.33526 -5.76414,-3.34959 0.004,-0.0165 1.41079,-2.46271 1.46968,-2.55552 0.0179,-0.0282 0.14414,0.0438 5.78404,3.29999 3.17115,1.83086 5.76704,3.33375 5.76864,3.33974 0.002,0.008 -0.7386,1.30007 -1.41414,2.46537 l -0.0751,0.12961 -5.76895,-3.3296 z"
           style="fill:#1a1a1a" />
        <path
           id="path4363"
           d="m 336.16065,236.41627 c -0.40967,-0.70998 -0.74356,-1.29577 -0.74198,-1.30176 0.002,-0.006 2.59747,-1.50886 5.76862,-3.33972 5.6399,-3.25621 5.76612,-3.32822 5.78404,-3.29999 0.0589,0.0928 1.46573,2.53904 1.46969,2.55552 0.003,0.0143 -1.61839,0.95696 -5.72358,3.32665 -3.15061,1.81866 -5.74718,3.31644 -5.77016,3.32841 l -0.0418,0.0218 -0.74486,-1.29087 z"
           style="fill:#1a1a1a" />
        <path
           id="path4361"
           d="m 318.69405,225.61631 c -0.40967,-0.70998 -0.74356,-1.29577 -0.74198,-1.30175 0.002,-0.006 2.59747,-1.50887 5.76862,-3.33973 5.6399,-3.2562 5.76612,-3.32822 5.78404,-3.29999 0.0589,0.0928 1.46573,2.53904 1.46969,2.55552 0.003,0.0143 -1.61839,0.95696 -5.72358,3.32665 -3.15061,1.81866 -5.74718,3.31645 -5.77016,3.32841 l -0.0418,0.0218 -0.74486,-1.29087 z"
           style="fill:#1a1a1a" />
        <path
           id="path4357"
           d="m 341.12077,223.57995 c -4.13443,-2.38622 -5.76759,-3.33526 -5.76414,-3.34959 0.004,-0.0165 1.41079,-2.46271 1.46968,-2.55552 0.0179,-0.0282 0.14414,0.0438 5.78404,3.29999 3.17115,1.83086 5.76704,3.33375 5.76864,3.33974 0.002,0.008 -0.7386,1.30007 -1.41414,2.46537 l -0.0751,0.12961 -5.76895,-3.3296 z"
           style="fill:#1a1a1a" />
      </g>
    </g>
  </g>
</svg>
